<svg xmlns="http://www.w3.org/2000/svg" version="1.1" xmlns:xlink="http://www.w3.org/1999/xlink" xmlns:svgjs="http://svgjs.com/svgjs" width="1920" height="5000" preserveAspectRatio="none" viewBox="0 0 1920 5000"><g mask="url(&quot;#SvgjsMask1191&quot;)" fill="none"><rect width="1920" height="5000" x="0" y="0" fill="rgba(253, 250, 250, 1)"></rect><path d="M441 1291L-462 388" stroke-width="6" stroke="url(#SvgjsLinearGradient1192)" stroke-linecap="round" class="BottomRight"></path><path d="M971 936L348 313" stroke-width="8" stroke="url(#SvgjsLinearGradient1193)" stroke-linecap="round" class="TopLeft"></path><path d="M1678 1753L2222 2297" stroke-width="6" stroke="url(#SvgjsLinearGradient1193)" stroke-linecap="round" class="TopLeft"></path><path d="M52 2768L-508 2208" stroke-width="8" stroke="url(#SvgjsLinearGradient1192)" stroke-linecap="round" class="BottomRight"></path><path d="M93 1247L-1043 111" stroke-width="6" stroke="url(#SvgjsLinearGradient1193)" stroke-linecap="round" class="TopLeft"></path><path d="M496 220L-307 -583" stroke-width="10" stroke="url(#SvgjsLinearGradient1193)" stroke-linecap="round" class="TopLeft"></path><path d="M20 1299L1069 2348" stroke-width="6" stroke="url(#SvgjsLinearGradient1193)" stroke-linecap="round" class="TopLeft"></path><path d="M886 974L1398 1486" stroke-width="6" stroke="url(#SvgjsLinearGradient1193)" stroke-linecap="round" class="TopLeft"></path><path d="M432 3378L-794 2152" stroke-width="8" stroke="url(#SvgjsLinearGradient1192)" stroke-linecap="round" class="BottomRight"></path><path d="M1709 864L2418 1573" stroke-width="6" stroke="url(#SvgjsLinearGradient1192)" stroke-linecap="round" class="BottomRight"></path><path d="M834 1060L1357 1583" stroke-width="8" stroke="url(#SvgjsLinearGradient1192)" stroke-linecap="round" class="BottomRight"></path><path d="M1291 2448L2366 3523" stroke-width="10" stroke="url(#SvgjsLinearGradient1192)" stroke-linecap="round" class="BottomRight"></path><path d="M1350 1511L328 489" stroke-width="10" stroke="url(#SvgjsLinearGradient1193)" stroke-linecap="round" class="TopLeft"></path><path d="M1501 1068L2836 2403" stroke-width="10" stroke="url(#SvgjsLinearGradient1193)" stroke-linecap="round" class="TopLeft"></path><path d="M1804 2193L3102 3491" stroke-width="6" stroke="url(#SvgjsLinearGradient1193)" stroke-linecap="round" class="TopLeft"></path><path d="M1176 1241L1790 1855" stroke-width="10" stroke="url(#SvgjsLinearGradient1192)" stroke-linecap="round" class="BottomRight"></path><path d="M1880 2616L1122 1858" stroke-width="8" stroke="url(#SvgjsLinearGradient1193)" stroke-linecap="round" class="TopLeft"></path><path d="M732 3154L-605 1817" stroke-width="8" stroke="url(#SvgjsLinearGradient1192)" stroke-linecap="round" class="BottomRight"></path><path d="M1220 2286L2617 3683" stroke-width="8" stroke="url(#SvgjsLinearGradient1193)" stroke-linecap="round" class="TopLeft"></path><path d="M900 4621L2108 5829" stroke-width="6" stroke="url(#SvgjsLinearGradient1193)" stroke-linecap="round" class="TopLeft"></path><path d="M905 4396L-507 2984" stroke-width="8" stroke="url(#SvgjsLinearGradient1193)" stroke-linecap="round" class="TopLeft"></path><path d="M277 2829L1597 4149" stroke-width="6" stroke="url(#SvgjsLinearGradient1193)" stroke-linecap="round" class="TopLeft"></path><path d="M994 3257L368 2631" stroke-width="6" stroke="url(#SvgjsLinearGradient1192)" stroke-linecap="round" class="BottomRight"></path><path d="M262 1523L-999 262" stroke-width="6" stroke="url(#SvgjsLinearGradient1192)" stroke-linecap="round" class="BottomRight"></path><path d="M1198 1816L71 689" stroke-width="10" stroke="url(#SvgjsLinearGradient1192)" stroke-linecap="round" class="BottomRight"></path><path d="M1706 1882L2638 2814" stroke-width="10" stroke="url(#SvgjsLinearGradient1192)" stroke-linecap="round" class="BottomRight"></path><path d="M1621 2048L910 1337" stroke-width="10" stroke="url(#SvgjsLinearGradient1192)" stroke-linecap="round" class="BottomRight"></path><path d="M1818 546L2448 1176" stroke-width="6" stroke="url(#SvgjsLinearGradient1193)" stroke-linecap="round" class="TopLeft"></path><path d="M1830 2590L2422 3182" stroke-width="8" stroke="url(#SvgjsLinearGradient1192)" stroke-linecap="round" class="BottomRight"></path><path d="M1535 3472L2748 4685" stroke-width="8" stroke="url(#SvgjsLinearGradient1193)" stroke-linecap="round" class="TopLeft"></path><path d="M357 1741L864 2248" stroke-width="10" stroke="url(#SvgjsLinearGradient1192)" stroke-linecap="round" class="BottomRight"></path><path d="M173 4241L-839 3229" stroke-width="8" stroke="url(#SvgjsLinearGradient1193)" stroke-linecap="round" class="TopLeft"></path><path d="M1584 77L2363 856" stroke-width="10" stroke="url(#SvgjsLinearGradient1193)" stroke-linecap="round" class="TopLeft"></path><path d="M742 1489L2002 2749" stroke-width="6" stroke="url(#SvgjsLinearGradient1193)" stroke-linecap="round" class="TopLeft"></path><path d="M556 4115L1245 4804" stroke-width="10" stroke="url(#SvgjsLinearGradient1192)" stroke-linecap="round" class="BottomRight"></path><path d="M842 3376L1974 4508" stroke-width="6" stroke="url(#SvgjsLinearGradient1192)" stroke-linecap="round" class="BottomRight"></path><path d="M1778 1019L2728 1969" stroke-width="6" stroke="url(#SvgjsLinearGradient1193)" stroke-linecap="round" class="TopLeft"></path><path d="M1067 1052L2137 2122" stroke-width="6" stroke="url(#SvgjsLinearGradient1193)" stroke-linecap="round" class="TopLeft"></path><path d="M1471 2354L2697 3580" stroke-width="10" stroke="url(#SvgjsLinearGradient1192)" stroke-linecap="round" class="BottomRight"></path><path d="M965 2255L2041 3331" stroke-width="6" stroke="url(#SvgjsLinearGradient1192)" stroke-linecap="round" class="BottomRight"></path><path d="M668 4421L1635 5388" stroke-width="8" stroke="url(#SvgjsLinearGradient1192)" stroke-linecap="round" class="BottomRight"></path><path d="M783 2440L1852 3509" stroke-width="10" stroke="url(#SvgjsLinearGradient1193)" stroke-linecap="round" class="TopLeft"></path><path d="M647 772L-367 -242" stroke-width="10" stroke="url(#SvgjsLinearGradient1193)" stroke-linecap="round" class="TopLeft"></path><path d="M917 2988L-363 1708" stroke-width="10" stroke="url(#SvgjsLinearGradient1192)" stroke-linecap="round" class="BottomRight"></path><path d="M1635 2744L2817 3926" stroke-width="10" stroke="url(#SvgjsLinearGradient1192)" stroke-linecap="round" class="BottomRight"></path><path d="M264 1412L-996 152" stroke-width="6" stroke="url(#SvgjsLinearGradient1192)" stroke-linecap="round" class="BottomRight"></path><path d="M1077 4893L564 4380" stroke-width="8" stroke="url(#SvgjsLinearGradient1192)" stroke-linecap="round" class="BottomRight"></path><path d="M1791 566L2749 1524" stroke-width="10" stroke="url(#SvgjsLinearGradient1192)" stroke-linecap="round" class="BottomRight"></path><path d="M1267 433L1849 1015" stroke-width="10" stroke="url(#SvgjsLinearGradient1192)" stroke-linecap="round" class="BottomRight"></path><path d="M1418 662L2058 1302" stroke-width="8" stroke="url(#SvgjsLinearGradient1192)" stroke-linecap="round" class="BottomRight"></path><path d="M1059 3983L1875 4799" stroke-width="10" stroke="url(#SvgjsLinearGradient1192)" stroke-linecap="round" class="BottomRight"></path><path d="M243 3740L-1121 2376" stroke-width="6" stroke="url(#SvgjsLinearGradient1192)" stroke-linecap="round" class="BottomRight"></path><path d="M1660 1246L2411 1997" stroke-width="10" stroke="url(#SvgjsLinearGradient1193)" stroke-linecap="round" class="TopLeft"></path><path d="M1563 4829L2736 6002" stroke-width="8" stroke="url(#SvgjsLinearGradient1192)" stroke-linecap="round" class="BottomRight"></path><path d="M1212 1973L474 1235" stroke-width="8" stroke="url(#SvgjsLinearGradient1193)" stroke-linecap="round" class="TopLeft"></path><path d="M1370 3567L393 2590" stroke-width="8" stroke="url(#SvgjsLinearGradient1192)" stroke-linecap="round" class="BottomRight"></path><path d="M1471 3105L182 1816" stroke-width="10" stroke="url(#SvgjsLinearGradient1193)" stroke-linecap="round" class="TopLeft"></path><path d="M318 2136L1221 3039" stroke-width="8" stroke="url(#SvgjsLinearGradient1192)" stroke-linecap="round" class="BottomRight"></path><path d="M1795 1264L2496 1965" stroke-width="6" stroke="url(#SvgjsLinearGradient1193)" stroke-linecap="round" class="TopLeft"></path><path d="M1595 1079L386 -130" stroke-width="6" stroke="url(#SvgjsLinearGradient1193)" stroke-linecap="round" class="TopLeft"></path><path d="M1211 2393L2509 3691" stroke-width="10" stroke="url(#SvgjsLinearGradient1193)" stroke-linecap="round" class="TopLeft"></path><path d="M516 4807L1326 5617" stroke-width="6" stroke="url(#SvgjsLinearGradient1192)" stroke-linecap="round" class="BottomRight"></path><path d="M434 4462L-421 3607" stroke-width="10" stroke="url(#SvgjsLinearGradient1192)" stroke-linecap="round" class="BottomRight"></path><path d="M1523 2306L2689 3472" stroke-width="6" stroke="url(#SvgjsLinearGradient1193)" stroke-linecap="round" class="TopLeft"></path><path d="M524 605L1376 1457" stroke-width="6" stroke="url(#SvgjsLinearGradient1193)" stroke-linecap="round" class="TopLeft"></path><path d="M1263 1436L2320 2493" stroke-width="6" stroke="url(#SvgjsLinearGradient1193)" stroke-linecap="round" class="TopLeft"></path><path d="M737 4841L1466 5570" stroke-width="6" stroke="url(#SvgjsLinearGradient1193)" stroke-linecap="round" class="TopLeft"></path><path d="M1350 3884L2143 4677" stroke-width="6" stroke="url(#SvgjsLinearGradient1193)" stroke-linecap="round" class="TopLeft"></path><path d="M627 3996L1387 4756" stroke-width="6" stroke="url(#SvgjsLinearGradient1192)" stroke-linecap="round" class="BottomRight"></path><path d="M715 1645L1336 2266" stroke-width="8" stroke="url(#SvgjsLinearGradient1192)" stroke-linecap="round" class="BottomRight"></path><path d="M835 1439L-15 589" stroke-width="8" stroke="url(#SvgjsLinearGradient1192)" stroke-linecap="round" class="BottomRight"></path><path d="M589 4429L-380 3460" stroke-width="6" stroke="url(#SvgjsLinearGradient1193)" stroke-linecap="round" class="TopLeft"></path><path d="M522 1799L1956 3233" stroke-width="8" stroke="url(#SvgjsLinearGradient1192)" stroke-linecap="round" class="BottomRight"></path><path d="M459 2948L1285 3774" stroke-width="10" stroke="url(#SvgjsLinearGradient1193)" stroke-linecap="round" class="TopLeft"></path><path d="M1530 993L2680 2143" stroke-width="10" stroke="url(#SvgjsLinearGradient1192)" stroke-linecap="round" class="BottomRight"></path><path d="M493 1578L-551 534" stroke-width="6" stroke="url(#SvgjsLinearGradient1193)" stroke-linecap="round" class="TopLeft"></path><path d="M690 3307L1386 4003" stroke-width="6" stroke="url(#SvgjsLinearGradient1192)" stroke-linecap="round" class="BottomRight"></path><path d="M148 2877L1265 3994" stroke-width="6" stroke="url(#SvgjsLinearGradient1193)" stroke-linecap="round" class="TopLeft"></path><path d="M1780 4983L1270 4473" stroke-width="6" stroke="url(#SvgjsLinearGradient1192)" stroke-linecap="round" class="BottomRight"></path><path d="M1473 34L2048 609" stroke-width="6" stroke="url(#SvgjsLinearGradient1192)" stroke-linecap="round" class="BottomRight"></path><path d="M555 4480L33 3958" stroke-width="8" stroke="url(#SvgjsLinearGradient1193)" stroke-linecap="round" class="TopLeft"></path><path d="M541 1297L1494 2250" stroke-width="8" stroke="url(#SvgjsLinearGradient1193)" stroke-linecap="round" class="TopLeft"></path><path d="M1035 635L138 -262" stroke-width="8" stroke="url(#SvgjsLinearGradient1192)" stroke-linecap="round" class="BottomRight"></path><path d="M1362 4394L1977 5009" stroke-width="8" stroke="url(#SvgjsLinearGradient1192)" stroke-linecap="round" class="BottomRight"></path><path d="M805 3629L-145 2679" stroke-width="8" stroke="url(#SvgjsLinearGradient1193)" stroke-linecap="round" class="TopLeft"></path><path d="M525 577L-737 -685" stroke-width="6" stroke="url(#SvgjsLinearGradient1192)" stroke-linecap="round" class="BottomRight"></path><path d="M1250 147L2668 1565" stroke-width="6" stroke="url(#SvgjsLinearGradient1193)" stroke-linecap="round" class="TopLeft"></path><path d="M650 4506L1188 5044" stroke-width="6" stroke="url(#SvgjsLinearGradient1192)" stroke-linecap="round" class="BottomRight"></path><path d="M1637 4720L252 3335" stroke-width="10" stroke="url(#SvgjsLinearGradient1193)" stroke-linecap="round" class="TopLeft"></path><path d="M1085 959L372 246" stroke-width="10" stroke="url(#SvgjsLinearGradient1193)" stroke-linecap="round" class="TopLeft"></path><path d="M1464 2208L2244 2988" stroke-width="10" stroke="url(#SvgjsLinearGradient1192)" stroke-linecap="round" class="BottomRight"></path><path d="M1540 18L908 -614" stroke-width="10" stroke="url(#SvgjsLinearGradient1193)" stroke-linecap="round" class="TopLeft"></path><path d="M1719 4664L1117 4062" stroke-width="8" stroke="url(#SvgjsLinearGradient1192)" stroke-linecap="round" class="BottomRight"></path><path d="M1091 1688L1820 2417" stroke-width="10" stroke="url(#SvgjsLinearGradient1192)" stroke-linecap="round" class="BottomRight"></path><path d="M1249 54L1990 795" stroke-width="6" stroke="url(#SvgjsLinearGradient1193)" stroke-linecap="round" class="TopLeft"></path><path d="M1427 2578L212 1363" stroke-width="8" stroke="url(#SvgjsLinearGradient1193)" stroke-linecap="round" class="TopLeft"></path><path d="M621 4596L-194 3781" stroke-width="8" stroke="url(#SvgjsLinearGradient1193)" stroke-linecap="round" class="TopLeft"></path><path d="M1872 2921L1327 2376" stroke-width="10" stroke="url(#SvgjsLinearGradient1192)" stroke-linecap="round" class="BottomRight"></path><path d="M225 4218L-970 3023" stroke-width="10" stroke="url(#SvgjsLinearGradient1192)" stroke-linecap="round" class="BottomRight"></path><path d="M160 1213L-395 658" stroke-width="10" stroke="url(#SvgjsLinearGradient1192)" stroke-linecap="round" class="BottomRight"></path><path d="M1468 2754L2282 3568" stroke-width="10" stroke="url(#SvgjsLinearGradient1192)" stroke-linecap="round" class="BottomRight"></path><path d="M857 3770L-381 2532" stroke-width="10" stroke="url(#SvgjsLinearGradient1192)" stroke-linecap="round" class="BottomRight"></path><path d="M1842 1254L3013 2425" stroke-width="8" stroke="url(#SvgjsLinearGradient1192)" stroke-linecap="round" class="BottomRight"></path><path d="M1532 3097L2555 4120" stroke-width="6" stroke="url(#SvgjsLinearGradient1192)" stroke-linecap="round" class="BottomRight"></path><path d="M1377 3210L2138 3971" stroke-width="6" stroke="url(#SvgjsLinearGradient1192)" stroke-linecap="round" class="BottomRight"></path><path d="M1454 2681L29 1256" stroke-width="6" stroke="url(#SvgjsLinearGradient1193)" stroke-linecap="round" class="TopLeft"></path><path d="M68 672L576 1180" stroke-width="10" stroke="url(#SvgjsLinearGradient1192)" stroke-linecap="round" class="BottomRight"></path><path d="M1155 3079L563 2487" stroke-width="10" stroke="url(#SvgjsLinearGradient1193)" stroke-linecap="round" class="TopLeft"></path><path d="M1673 3770L293 2390" stroke-width="6" stroke="url(#SvgjsLinearGradient1193)" stroke-linecap="round" class="TopLeft"></path><path d="M1609 3627L787 2805" stroke-width="10" stroke="url(#SvgjsLinearGradient1192)" stroke-linecap="round" class="BottomRight"></path><path d="M929 256L1680 1007" stroke-width="10" stroke="url(#SvgjsLinearGradient1193)" stroke-linecap="round" class="TopLeft"></path><path d="M1439 4449L910 3920" stroke-width="6" stroke="url(#SvgjsLinearGradient1192)" stroke-linecap="round" class="BottomRight"></path><path d="M838 1477L1480 2119" stroke-width="10" stroke="url(#SvgjsLinearGradient1192)" stroke-linecap="round" class="BottomRight"></path><path d="M582 4786L-798 3406" stroke-width="10" stroke="url(#SvgjsLinearGradient1192)" stroke-linecap="round" class="BottomRight"></path><path d="M888 1248L1991 2351" stroke-width="6" stroke="url(#SvgjsLinearGradient1192)" stroke-linecap="round" class="BottomRight"></path><path d="M1363 2513L186 1336" stroke-width="6" stroke="url(#SvgjsLinearGradient1192)" stroke-linecap="round" class="BottomRight"></path><path d="M135 2039L1485 3389" stroke-width="8" stroke="url(#SvgjsLinearGradient1192)" stroke-linecap="round" class="BottomRight"></path><path d="M1836 2705L2993 3862" stroke-width="6" stroke="url(#SvgjsLinearGradient1192)" stroke-linecap="round" class="BottomRight"></path><path d="M951 161L1938 1148" stroke-width="6" stroke="url(#SvgjsLinearGradient1193)" stroke-linecap="round" class="TopLeft"></path><path d="M1792 3952L2519 4679" stroke-width="6" stroke="url(#SvgjsLinearGradient1192)" stroke-linecap="round" class="BottomRight"></path><path d="M1875 2587L1054 1766" stroke-width="10" stroke="url(#SvgjsLinearGradient1193)" stroke-linecap="round" class="TopLeft"></path><path d="M1294 3660L2187 4553" stroke-width="6" stroke="url(#SvgjsLinearGradient1193)" stroke-linecap="round" class="TopLeft"></path><path d="M540 2028L-828 660" stroke-width="10" stroke="url(#SvgjsLinearGradient1193)" stroke-linecap="round" class="TopLeft"></path><path d="M119 227L-1082 -974" stroke-width="6" stroke="url(#SvgjsLinearGradient1193)" stroke-linecap="round" class="TopLeft"></path><path d="M1082 3970L2252 5140" stroke-width="10" stroke="url(#SvgjsLinearGradient1193)" stroke-linecap="round" class="TopLeft"></path><path d="M1529 561L134 -834" stroke-width="10" stroke="url(#SvgjsLinearGradient1192)" stroke-linecap="round" class="BottomRight"></path><path d="M1187 3912L1916 4641" stroke-width="8" stroke="url(#SvgjsLinearGradient1192)" stroke-linecap="round" class="BottomRight"></path><path d="M1269 3462L344 2537" stroke-width="8" stroke="url(#SvgjsLinearGradient1192)" stroke-linecap="round" class="BottomRight"></path><path d="M1582 1347L1064 829" stroke-width="10" stroke="url(#SvgjsLinearGradient1192)" stroke-linecap="round" class="BottomRight"></path><path d="M1306 1256L2475 2425" stroke-width="6" stroke="url(#SvgjsLinearGradient1193)" stroke-linecap="round" class="TopLeft"></path><path d="M244 3204L-1059 1901" stroke-width="8" stroke="url(#SvgjsLinearGradient1193)" stroke-linecap="round" class="TopLeft"></path><path d="M816 4431L-267 3348" stroke-width="8" stroke="url(#SvgjsLinearGradient1192)" stroke-linecap="round" class="BottomRight"></path><path d="M1757 3082L2710 4035" stroke-width="10" stroke="url(#SvgjsLinearGradient1192)" stroke-linecap="round" class="BottomRight"></path><path d="M1113 2839L487 2213" stroke-width="10" stroke="url(#SvgjsLinearGradient1192)" stroke-linecap="round" class="BottomRight"></path></g><defs><mask id="SvgjsMask1191"><rect width="1920" height="5000" fill="#ffffff"></rect></mask><linearGradient x1="0%" y1="0%" x2="100%" y2="100%" id="SvgjsLinearGradient1192"><stop stop-color="rgba(255, 110, 0, 0)" offset="0"></stop><stop stop-color="rgba(255, 110, 0, 0.3)" offset="1"></stop></linearGradient><linearGradient x1="100%" y1="100%" x2="0%" y2="0%" id="SvgjsLinearGradient1193"><stop stop-color="rgba(255, 110, 0, 0)" offset="0"></stop><stop stop-color="rgba(255, 110, 0, 0.3)" offset="1"></stop></linearGradient></defs></svg>