<?xml version="1.0" encoding="utf-8"?>
<svg class="css-1j8o68f" viewBox="113.42 -0.468 112.926 112.716" height="226.9094829868869" width="391" xmlns="http://www.w3.org/2000/svg">
  <g fill="#ffaa64" transform="matrix(3.4875000000000003,0,0,3.4875000000000003,114,0)" id="SvgjsG1910">
    <g display="none" xmlns="http://www.w3.org/2000/svg">
      <rect height="236" width="473.333" fill="#ffaa64" display="inline" y="-18.667" x="-153.365"/>
    </g>
    <g display="none" xmlns="http://www.w3.org/2000/svg">
      <ellipse ry="16" rx="16" cy="16" cx="16" display="inline" transform="matrix(0.7071 -0.7071 0.7071 0.7071 -6.6274 16)"/>
      <line y2="7.69" x2="15.267" y1="15.12" x1="7.837" stroke-miterlimit="10" stroke="#ffaa64" fill="#ffaa64" display="inline"/>
      <line y2="7.514" x2="20.033" y1="19.579" x1="7.968" stroke-miterlimit="10" stroke="#ffaa64" fill="#ffaa64" display="inline"/>
      <line y2="7.896" x2="24.241" y1="24.377" x1="7.759" stroke-miterlimit="10" stroke="#ffaa64" fill="#ffaa64" display="inline"/>
      <line y2="12.662" x2="24.064" y1="24.209" x1="12.518" stroke-miterlimit="10" stroke="#ffaa64" fill="#ffaa64" display="inline"/>
      <line y2="17.096" x2="24.22" y1="24.486" x1="16.83" stroke-miterlimit="10" stroke="#ffaa64" fill="#ffaa64" display="inline"/>
    </g>
    <g xmlns="http://www.w3.org/2000/svg">
      <path d="M16,0C11.905,0,7.81,1.562,4.686,4.686c-6.248,6.248-6.248,16.379,0,22.627C7.81,30.438,11.905,32,16,32   c4.095,0,8.19-1.562,11.314-4.686c6.248-6.248,6.248-16.379,0-22.627C24.19,1.562,20.095,0,16,0z M26.607,26.607   C23.773,29.44,20.007,31,16,31s-7.773-1.56-10.607-4.393c-5.849-5.849-5.849-15.365,0-21.213C8.227,2.56,11.993,1,16,1   s7.773,1.56,10.607,4.393C32.455,11.242,32.455,20.758,26.607,26.607z"/>
      <rect height="1" width="10.508" transform="matrix(0.7071 -0.7071 0.7071 0.7071 -4.681 11.5091)" y="10.905" x="6.298"/>
      <rect height="1" width="17.063" transform="matrix(0.7071 -0.7071 0.7071 0.7071 -5.4781 13.8675)" y="13.046" x="5.469"/>
      <rect height="1" width="23.307" transform="matrix(0.7071 -0.7071 0.7071 0.7071 -6.7239 16.04)" y="15.637" x="4.346"/>
      <rect height="1" width="16.33" transform="matrix(0.7071 -0.7071 0.7071 0.7071 -7.6786 18.3333)" y="17.936" x="10.126"/>
      <rect height="1" width="10.451" transform="matrix(0.7071 -0.7071 0.7071 0.7071 -8.6902 20.603)" y="20.292" x="15.3"/>
    </g>
    <g display="none" xmlns="http://www.w3.org/2000/svg">
      <g display="inline">
        <path d="M16,31.5c-4.141,0-8.032-1.612-10.96-4.54S0.5,20.141,0.5,16c0-4.14,1.612-8.033,4.54-10.96    C7.968,2.112,11.859,0.5,16,0.5s8.032,1.612,10.96,4.54C29.888,7.967,31.5,11.86,31.5,16c0,4.141-1.612,8.032-4.54,10.96    S20.141,31.5,16,31.5z" fill="#ffaa64"/>
        <g>
          <path d="M16,1c4.007,0,7.773,1.56,10.607,4.393c5.848,5.849,5.848,15.365,0,21.213C23.773,29.44,20.007,31,16,31     c-4.007,0-7.773-1.56-10.607-4.393c-5.849-5.849-5.849-15.365,0-21.213C8.227,2.56,11.993,1,16,1 M16,0     C11.905,0,7.81,1.562,4.686,4.686c-6.248,6.248-6.248,16.379,0,22.627C7.81,30.438,11.905,32,16,32s8.19-1.562,11.314-4.686     c6.248-6.248,6.248-16.379,0-22.627C24.19,1.562,20.095,0,16,0L16,0z" fill="#ffaa64"/>
        </g>
      </g>
      <line y2="7.69" x2="15.267" y1="15.12" x1="7.837" stroke-miterlimit="10" stroke="#ffaa64" fill="#ffaa64" display="inline"/>
      <line y2="7.514" x2="20.033" y1="19.579" x1="7.968" stroke-miterlimit="10" stroke="#ffaa64" fill="#ffaa64" display="inline"/>
      <line y2="7.896" x2="24.241" y1="24.377" x1="7.759" stroke-miterlimit="10" stroke="#ffaa64" fill="#ffaa64" display="inline"/>
      <line y2="12.662" x2="24.064" y1="24.209" x1="12.518" stroke-miterlimit="10" stroke="#ffaa64" fill="#ffaa64" display="inline"/>
      <line y2="17.096" x2="24.22" y1="24.486" x1="16.83" stroke-miterlimit="10" stroke="#ffaa64" fill="#ffaa64" display="inline"/>
    </g>
    <g display="none" xmlns="http://www.w3.org/2000/svg">
      <path d="M4.686,4.686c-6.248,6.248-6.248,16.379,0,22.627c6.248,6.248,16.379,6.248,22.627,0   c6.248-6.248,6.248-16.379,0-22.627C21.065-1.562,10.935-1.562,4.686,4.686z M19.68,7.16l0.707,0.707L8.321,19.933l-0.707-0.707   L19.68,7.16z M14.914,7.336l0.707,0.707l-7.431,7.43l-0.707-0.707L14.914,7.336z M12.871,24.562l-0.707-0.707l11.547-11.547   l0.707,0.707L12.871,24.562z M17.184,24.84l-0.707-0.707l7.39-7.39l0.707,0.707L17.184,24.84z M8.113,24.73l-0.707-0.707   l16.48-16.481l0.707,0.707L8.113,24.73z" display="inline"/>
    </g>
  </g>
</svg>